<svg width="17" height="17" viewBox="0 0 17 17" fill="none" xmlns="http://www.w3.org/2000/svg">
<path d="M9.55499 11.5453C9.69268 11.6085 9.84779 11.6229 9.99479 11.5862C10.1418 11.5495 10.2719 11.4638 10.3637 11.3433L10.6003 11.0333C10.7245 10.8677 10.8856 10.7333 11.0707 10.6407C11.2558 10.5481 11.46 10.4999 11.667 10.4999H13.667C14.0206 10.4999 14.3598 10.6404 14.6098 10.8904C14.8598 11.1405 15.0003 11.4796 15.0003 11.8333V13.8333C15.0003 14.1869 14.8598 14.526 14.6098 14.7761C14.3598 15.0261 14.0206 15.1666 13.667 15.1666C10.4844 15.1666 7.43215 13.9023 5.18171 11.6519C2.93127 9.40143 1.66699 6.34918 1.66699 3.16659C1.66699 2.81296 1.80747 2.47382 2.05752 2.22378C2.30756 1.97373 2.6467 1.83325 3.00033 1.83325H5.00033C5.35395 1.83325 5.69309 1.97373 5.94313 2.22378C6.19318 2.47382 6.33366 2.81296 6.33366 3.16659V5.16659C6.33366 5.37358 6.28547 5.57773 6.19289 5.76287C6.10032 5.94801 5.96592 6.10906 5.80033 6.23325L5.48833 6.46725C5.36594 6.5607 5.27967 6.69364 5.24419 6.84349C5.2087 6.99333 5.22618 7.15084 5.29366 7.28925C6.20478 9.13983 7.70327 10.6364 9.55499 11.5453Z" stroke="white" stroke-width="1.33333" stroke-linecap="round" stroke-linejoin="round"/>
</svg>
