<svg width="24" height="25" viewBox="0 0 24 25" fill="none" xmlns="http://www.w3.org/2000/svg">
<path d="M14.5346 22.1866C14.5726 22.2813 14.6386 22.3621 14.7239 22.4181C14.8091 22.4742 14.9094 22.5028 15.0114 22.5002C15.1134 22.4976 15.2121 22.4639 15.2944 22.4035C15.3766 22.3432 15.4384 22.2591 15.4715 22.1626L21.9709 3.16443C22.0029 3.07584 22.009 2.97996 21.9885 2.88801C21.968 2.79607 21.9217 2.71187 21.8551 2.64526C21.7885 2.57865 21.7043 2.53239 21.6124 2.51189C21.5204 2.49139 21.4245 2.49749 21.336 2.52949L2.33777 9.02887C2.24128 9.06196 2.15722 9.12378 2.09687 9.20603C2.03652 9.28827 2.00278 9.38701 2.00016 9.48899C1.99755 9.59096 2.0262 9.6913 2.08226 9.77653C2.13831 9.86175 2.2191 9.92779 2.31377 9.96578L10.243 13.1455C10.4937 13.2458 10.7214 13.3959 10.9125 13.5867C11.1036 13.7774 11.2541 14.0049 11.3549 14.2554L14.5346 22.1866Z" stroke="white" stroke-width="1.99981" stroke-linecap="round" stroke-linejoin="round"/>
<path d="M21.852 2.64673L10.9131 13.5857" stroke="white" stroke-width="1.99981" stroke-linecap="round" stroke-linejoin="round"/>
</svg>
