<svg width="32" height="32" viewBox="0 0 32 32" fill="none" xmlns="http://www.w3.org/2000/svg">
<path d="M19.8184 3.27258H8.36381C7.68872 3.27258 7.04127 3.54076 6.56391 4.01813C6.08654 4.49549 5.81836 5.14294 5.81836 5.81804V26.1817C5.81836 26.8568 6.08654 27.5042 6.56391 27.9816C7.04127 28.4589 7.68872 28.7271 8.36381 28.7271H23.6365C24.3116 28.7271 24.9591 28.4589 25.4364 27.9816C25.9138 27.5042 26.182 26.8568 26.182 26.1817V9.63622L19.8184 3.27258Z" stroke="#23669B" stroke-width="2.54545" stroke-linecap="round" stroke-linejoin="round"/>
<path d="M18.5454 3.27258V8.36349C18.5454 9.03859 18.8136 9.68603 19.291 10.1634C19.7683 10.6408 20.4158 10.9089 21.0909 10.9089H26.1818" stroke="#23669B" stroke-width="2.54545" stroke-linecap="round" stroke-linejoin="round"/>
<path d="M13.4546 12.1817H10.9092" stroke="#23669B" stroke-width="2.54545" stroke-linecap="round" stroke-linejoin="round"/>
<path d="M21.091 17.2726H10.9092" stroke="#23669B" stroke-width="2.54545" stroke-linecap="round" stroke-linejoin="round"/>
<path d="M21.091 22.3635H10.9092" stroke="#23669B" stroke-width="2.54545" stroke-linecap="round" stroke-linejoin="round"/>
</svg>
